<svg xmlns="http://www.w3.org/2000/svg" width="17.227" height="17.227" viewBox="0 0 17.227 17.227">
  <g id="Square_Menu_Alt" data-name="Square Menu Alt" transform="translate(-4 -4)">
    <path id="Path_14" data-name="Path 14" d="M16.089,9.025H13.936A1.436,1.436,0,0,1,12.5,7.589V5.436A1.436,1.436,0,0,1,13.936,4h2.153a1.436,1.436,0,0,1,1.436,1.436V7.589A1.436,1.436,0,0,1,16.089,9.025Z" transform="translate(-2.399)" fill="#dbdb09"/>
    <path id="Path_15" data-name="Path 15" d="M7.589,9.025H5.436A1.436,1.436,0,0,1,4,7.589V5.436A1.436,1.436,0,0,1,5.436,4H7.589A1.436,1.436,0,0,1,9.025,5.436V7.589A1.436,1.436,0,0,1,7.589,9.025Z" fill="#dbdb09"/>
    <path id="Path_16" data-name="Path 16" d="M24.589,9.025H22.436A1.436,1.436,0,0,1,21,7.589V5.436A1.436,1.436,0,0,1,22.436,4h2.153a1.436,1.436,0,0,1,1.436,1.436V7.589A1.436,1.436,0,0,1,24.589,9.025Z" transform="translate(-4.798)" fill="#dbdb09"/>
    <path id="Path_17" data-name="Path 17" d="M16.089,26.025H13.936A1.436,1.436,0,0,1,12.5,24.589V22.436A1.436,1.436,0,0,1,13.936,21h2.153a1.436,1.436,0,0,1,1.436,1.436v2.153A1.436,1.436,0,0,1,16.089,26.025Z" transform="translate(-2.399 -4.798)" fill="#dbdb09"/>
    <path id="Path_18" data-name="Path 18" d="M7.589,26.025H5.436A1.436,1.436,0,0,1,4,24.589V22.436A1.436,1.436,0,0,1,5.436,21H7.589a1.436,1.436,0,0,1,1.436,1.436v2.153A1.436,1.436,0,0,1,7.589,26.025Z" transform="translate(0 -4.798)" fill="#dbdb09"/>
    <path id="Path_19" data-name="Path 19" d="M24.589,26.025H22.436A1.436,1.436,0,0,1,21,24.589V22.436A1.436,1.436,0,0,1,22.436,21h2.153a1.436,1.436,0,0,1,1.436,1.436v2.153A1.436,1.436,0,0,1,24.589,26.025Z" transform="translate(-4.798 -4.798)" fill="#dbdb09"/>
    <path id="Path_20" data-name="Path 20" d="M16.089,17.525H13.936A1.436,1.436,0,0,1,12.5,16.089V13.936A1.436,1.436,0,0,1,13.936,12.5h2.153a1.436,1.436,0,0,1,1.436,1.436v2.153A1.436,1.436,0,0,1,16.089,17.525Z" transform="translate(-2.399 -2.399)" fill="#dbdb09"/>
    <path id="Path_21" data-name="Path 21" d="M7.589,17.525H5.436A1.436,1.436,0,0,1,4,16.089V13.936A1.436,1.436,0,0,1,5.436,12.5H7.589a1.436,1.436,0,0,1,1.436,1.436v2.153A1.436,1.436,0,0,1,7.589,17.525Z" transform="translate(0 -2.399)" fill="#dbdb09"/>
    <path id="Path_22" data-name="Path 22" d="M24.589,17.525H22.436A1.436,1.436,0,0,1,21,16.089V13.936A1.436,1.436,0,0,1,22.436,12.5h2.153a1.436,1.436,0,0,1,1.436,1.436v2.153A1.436,1.436,0,0,1,24.589,17.525Z" transform="translate(-4.798 -2.399)" fill="#dbdb09"/>
  </g>
</svg>
