<svg id="Group_818" data-name="Group 818" xmlns="http://www.w3.org/2000/svg" width="452.208" height="218.856" viewBox="0 0 452.208 218.856">
  <path id="Path_2203" data-name="Path 2203" d="M352.5,281.05v69.481h88.39v18.678c8.218-14.2,20.172-18.678,20.172-18.678h113.56V281.05Z" transform="translate(-183.733 -281.05)" fill="#ccedee"/>
  <path id="Path_2204" data-name="Path 2204" d="M378.323,434.05v53.792h-28.39v18.678c-8.218-14.2-20.172-18.678-20.172-18.678H203.5V434.05Z" transform="translate(73.885 -331.742)" fill="#ccedee"/>
  <path id="Path_2205" data-name="Path 2205" d="M693.5,329.05v53.792h28.39v18.678c8.218-14.2,20.172-18.678,20.172-18.678H918.323V329.05Z" transform="translate(-693.5 -242.891)" fill="#ccedee"/>
  <path id="Path_2206" data-name="Path 2206" d="M543.5,524.05v30.631h10.459v18.678c8.218-14.2,20.172-18.678,20.172-18.678H867.745V524.05Z" transform="translate(-476.799 -354.503)" fill="#ccedee"/>
  <circle id="Ellipse_5" data-name="Ellipse 5" cx="5.23" cy="5.23" r="5.23" transform="translate(75.666 179.26)" fill="#01a6ab"/>
  <circle id="Ellipse_6" data-name="Ellipse 6" cx="5.23" cy="5.23" r="5.23" transform="translate(90.608 179.26)" fill="#01a6ab"/>
  <circle id="Ellipse_7" data-name="Ellipse 7" cx="5.23" cy="5.23" r="5.23" transform="translate(105.55 179.26)" fill="#01a6ab"/>
  <circle id="Ellipse_8" data-name="Ellipse 8" cx="5.23" cy="5.23" r="5.23" transform="translate(120.493 179.26)" fill="#01a6ab"/>
</svg>
