<svg xmlns="http://www.w3.org/2000/svg" width="38" height="38" viewBox="0 0 38 38">
  <path id="_3_column_image" data-name="3 column image" d="M35.545,1H11.364A3.465,3.465,0,0,0,7.909,4.455V28.636a3.465,3.465,0,0,0,3.455,3.455H35.545A3.465,3.465,0,0,0,39,28.636V4.455A3.465,3.465,0,0,0,35.545,1Zm0,27.636H11.364V4.455H35.545ZM4.455,7.909H1V35.545A3.465,3.465,0,0,0,4.455,39H32.091V35.545H4.455ZM28.636,21.727V19.136a2.587,2.587,0,0,0-2.591-2.591,2.587,2.587,0,0,0,2.591-2.591V11.364a3.454,3.454,0,0,0-3.455-3.455H18.273v3.455h6.909v3.455H21.727v3.455h3.455v3.455H18.273v3.455h6.909A3.454,3.454,0,0,0,28.636,21.727Z" transform="translate(-1 -1)"/>
</svg>
