<svg id="all_workspace" data-name="all workspace" xmlns="http://www.w3.org/2000/svg" width="20.997" height="20.304" viewBox="0 0 20.997 20.304">
  <path id="Path_138" data-name="Path 138" d="M3.777,21.694l1.288.532V13.58L2.742,19.189A1.926,1.926,0,0,0,3.777,21.694Zm18.68-3.554L17.705,6.678A1.919,1.919,0,0,0,15.976,5.5a1.975,1.975,0,0,0-.766.144L8.155,8.565a1.92,1.92,0,0,0-1.178,1.724,1.9,1.9,0,0,0,.144.771l4.747,11.462a1.915,1.915,0,0,0,2.5,1.035l7.055-2.922a1.916,1.916,0,0,0,1.039-2.5ZM8.9,11.247a.958.958,0,1,1,.958-.958A.961.961,0,0,1,8.9,11.247ZM6.981,21.785A1.922,1.922,0,0,0,8.9,23.7h1.394l-3.31-7.989Z" transform="translate(-1.604 -3.397)" fill="#fff"/>
  <path id="Path_139" data-name="Path 139" d="M0,0H18.351V18.351H0Z" fill="none"/>
</svg>
