<svg xmlns="http://www.w3.org/2000/svg" width="31" height="31" viewBox="0 0 31 31">
  <g id="arrow_down" data-name="arrow down" transform="translate(-1460 -570)">
    <circle id="Ellipse_30" data-name="Ellipse 30" cx="15.5" cy="15.5" r="15.5" transform="translate(1460 570)" fill="#57cf3b"/>
    <path id="XMLID_890_" d="M26.989,15.655a.949.949,0,0,0-.819-.576H23.291V6.886a.99.99,0,0,0-1-.886H16.758a.99.99,0,0,0-1,.886v8.193H12.883a.949.949,0,0,0-.819.576.919.919,0,0,0,.177.974l6.643,6.8a.909.909,0,0,0,1.284,0l6.643-6.8A.919.919,0,0,0,26.989,15.655Zm-7.463,5.824-4.54-4.628h1.772a.727.727,0,0,0,.775-.8V7.772h3.986v8.282a.727.727,0,0,0,.775.8h1.772Z" transform="translate(1455.973 570.822)" fill="#f6f5f5"/>
  </g>
</svg>
