<svg id="arrow_up" data-name="arrow up" xmlns="http://www.w3.org/2000/svg" width="31" height="31" viewBox="0 0 31 31">
  <circle id="Ellipse_30" data-name="Ellipse 30" cx="15.5" cy="15.5" r="15.5" fill="#57cf3b"/>
  <path id="XMLID_890_" d="M26.989,14.038a.949.949,0,0,1-.819.576H23.291v8.193a.99.99,0,0,1-1,.886H16.758a.99.99,0,0,1-1-.886V14.614H12.883a.949.949,0,0,1-.819-.576.919.919,0,0,1,.177-.974l6.643-6.8a.909.909,0,0,1,1.284,0l6.643,6.8A.919.919,0,0,1,26.989,14.038ZM19.526,8.214l-4.54,4.628h1.772a.727.727,0,0,1,.775.8v8.282h3.986V13.64a.727.727,0,0,1,.775-.8h1.772Z" transform="translate(-4.027 0.484)" fill="#f6f5f5"/>
</svg>
