<svg xmlns="http://www.w3.org/2000/svg" width="25" height="16.076" viewBox="0 0 25 16.076">
  <g id="automatic_wht" data-name="automatic wht" transform="translate(0 -91.38)">
    <g id="Group_20" data-name="Group 20" transform="translate(4.242 91.38)">
      <g id="Group_19" data-name="Group 19">
        <path id="Path_122" data-name="Path 122" d="M86.882,94.5l4.166,4.166a6.517,6.517,0,0,1,3.359-1.39v-5.9A12.381,12.381,0,0,0,86.882,94.5Z" transform="translate(-86.882 -91.38)" fill="#f6f5f5"/>
      </g>
    </g>
    <g id="Group_22" data-name="Group 22" transform="translate(0 95.536)">
      <g id="Group_21" data-name="Group 21">
        <path id="Path_123" data-name="Path 123" d="M3.207,176.5A12.428,12.428,0,0,0,0,184.76a.732.732,0,0,0,.732.732H5.176a.732.732,0,0,0,.732-.732,6.525,6.525,0,0,1,1.465-4.092Z" transform="translate(0 -176.502)" fill="#f6f5f5"/>
      </g>
    </g>
    <g id="Group_24" data-name="Group 24" transform="translate(9.57 97.885)">
      <g id="Group_23" data-name="Group 23">
        <path id="Path_124" data-name="Path 124" d="M204.589,224.779a.73.73,0,0,0-.877-.066l-6.356,4.055a2.93,2.93,0,1,0,4.231,3.706l3.184-6.835A.732.732,0,0,0,204.589,224.779Z" transform="translate(-196 -224.596)" fill="#f6f5f5"/>
      </g>
    </g>
    <g id="Group_26" data-name="Group 26" transform="translate(18.704 95.536)">
      <g id="Group_25" data-name="Group 25">
        <path id="Path_125" data-name="Path 125" d="M386.157,176.5,384,178.655a2.188,2.188,0,0,1,.027,1.856l-.963,2.068a6.355,6.355,0,0,1,.387,2.181.732.732,0,0,0,.732.732h4.443a.732.732,0,0,0,.732-.732A12.428,12.428,0,0,0,386.157,176.5Z" transform="translate(-383.068 -176.502)" fill="#f6f5f5"/>
      </g>
    </g>
    <g id="Group_28" data-name="Group 28" transform="translate(13.232 91.38)">
      <g id="Group_27" data-name="Group 27">
        <path id="Path_126" data-name="Path 126" d="M271,91.38v5.9a6.568,6.568,0,0,1,1.756.45l1.507-.961a2.09,2.09,0,0,1,2.11-.111l2.153-2.153A12.381,12.381,0,0,0,271,91.38Z" transform="translate(-271 -91.38)" fill="#f6f5f5"/>
      </g>
    </g>
  </g>
</svg>
