<svg xmlns="http://www.w3.org/2000/svg" width="20.717" height="20.848" viewBox="0 0 20.717 20.848">
  <g id="bonus_builder" data-name="bonus builder" transform="translate(-1861 -1350)">
    <g id="bonus_builder-2" data-name="bonus builder" transform="translate(1861 1350)">
      <path id="Path_58" data-name="Path 58" d="M20.706,5.041a4.248,4.248,0,0,0-4.39-2.384,2.2,2.2,0,0,0-1.881,2.18V8.154h3.2a3.2,3.2,0,0,1,3.073-3.112Z" transform="translate(-10.473 -2.609)" fill="#57cf3b"/>
      <path id="Path_59" data-name="Path 59" d="M26.187,14.341H30.68a2.248,2.248,0,0,0-4.493,0Z" transform="translate(-18.073 -8.796)" fill="#57cf3b"/>
      <path id="Path_60" data-name="Path 60" d="M35.971,8.154h3.194V4.838a2.2,2.2,0,0,0-1.881-2.18,4.248,4.248,0,0,0-4.39,2.383A3.2,3.2,0,0,1,35.971,8.154Z" transform="translate(-22.41 -2.609)" fill="#57cf3b"/>
      <path id="Path_61" data-name="Path 61" d="M9.189,44.65A1.415,1.415,0,0,0,10.6,46.064h3.636v-8.5H9.189Z" transform="translate(-7.08 -25.217)" fill="#57cf3b"/>
      <path id="Path_62" data-name="Path 62" d="M22.832,21H4.327a1.106,1.106,0,0,0-1.106,1.106v2.768A1.026,1.026,0,0,0,4.244,25.9h18.67a1.026,1.026,0,0,0,1.024-1.026V22.108A1.106,1.106,0,0,0,22.832,21Z" transform="translate(-3.221 -14.504)" fill="#57cf3b"/>
      <path id="Path_63" data-name="Path 63" d="M42.574,46.064h3.29a1.415,1.415,0,0,0,1.415-1.415V37.568h-4.7Z" transform="translate(-28.67 -25.217)" fill="#57cf3b"/>
      <rect id="Rectangle_46" data-name="Rectangle 46" width="4.838" height="8.496" transform="translate(8.112 12.352)" fill="#57cf3b"/>
    </g>
  </g>
</svg>
