<svg id="choose_dfy" data-name="choose dfy" xmlns="http://www.w3.org/2000/svg" width="15.242" height="21.575" viewBox="0 0 15.242 21.575">
  <path id="Path_215" data-name="Path 215" d="M14.239,57.023h-.031A1.137,1.137,0,0,0,13.1,58.19V59.1a.328.328,0,0,1-.656,0V57.42a1.084,1.084,0,1,0-2.157,0V59.2a.328.328,0,1,1-.656,0V56.931a1.135,1.135,0,0,0-1.1-1.174H8.5a1.1,1.1,0,0,0-1.075,1.124v2.554a.328.328,0,1,1-.656,0v-2.48c0-.008,0-.016,0-.025s0-.04,0-.06v-5.8a1.149,1.149,0,0,0-1.1-1.189,1.149,1.149,0,0,0-1.1,1.189l-.007,9.615a.328.328,0,0,1-.582.208L2.845,59.5a1.748,1.748,0,0,0-1.234-.652,1.71,1.71,0,0,0-1.285.461l-.013.012-.225.188,3.981,7.65a3.531,3.531,0,0,0,3.1,1.963h4.6a3.711,3.711,0,0,0,3.555-3.833c0-1.118,0-1.956,0-2.631,0-1.805,0-2.469,0-4.457a1.133,1.133,0,0,0-1.089-1.175Zm0,0" transform="translate(-0.089 -47.544)" fill="#fff"/>
  <path id="Path_216" data-name="Path 216" d="M48.922,3.643a.328.328,0,0,0,.328-.328,2.646,2.646,0,1,1,5.292,0,.328.328,0,0,0,.656,0,3.3,3.3,0,1,0-6.6,0A.328.328,0,0,0,48.922,3.643Zm0,0" transform="translate(-46.319 0)" fill="#fff"/>
</svg>
