<svg xmlns="http://www.w3.org/2000/svg" width="20.201" height="19.36" viewBox="0 0 20.201 19.36">
  <g id="conversion_tools" data-name="conversion tools" transform="translate(0 0)">
    <path id="Path_76" data-name="Path 76" d="M8.75,17.612v3.9a.631.631,0,0,0,1.14.374l2.284-3.108Z" transform="translate(-1.385 -2.788)" fill="purple"/>
    <path id="Path_77" data-name="Path 77" d="M19.936.117a.632.632,0,0,0-.658-.045L.339,9.962a.632.632,0,0,0,.088,1.157l5.265,1.8L16.9,3.332,8.228,13.785,17.052,16.8a.646.646,0,0,0,.2.034.631.631,0,0,0,.625-.538L20.195.725a.632.632,0,0,0-.258-.608Z" transform="translate(0 0)" fill="purple"/>
  </g>
</svg>
