<svg id="create_url" data-name="create url" xmlns="http://www.w3.org/2000/svg" width="15.621" height="9.112" viewBox="0 0 15.621 9.112">
  <path id="Path_219" data-name="Path 219" d="M300.621,9.113h-1.3a.651.651,0,0,1,0-1.3h1.3a3.254,3.254,0,0,0,0-6.509h-1.3a.651.651,0,0,1,0-1.3h1.3a4.556,4.556,0,0,1,0,9.112Zm0,0" transform="translate(-289.556 0)" fill="#fff"/>
  <path id="Path_220" data-name="Path 220" d="M5.858,9.112h-1.3A4.556,4.556,0,0,1,4.556,0h1.3a.651.651,0,0,1,0,1.3h-1.3a3.254,3.254,0,0,0,0,6.509h1.3a.651.651,0,0,1,0,1.3Zm0,0" fill="#fff"/>
  <path id="Path_221" data-name="Path 221" d="M175.224,129.3h-3.905a.651.651,0,0,1,0-1.3h3.905a.651.651,0,0,1,0,1.3Zm0,0" transform="translate(-165.461 -124.095)" fill="#fff"/>
</svg>
