<svg id="create_from_articles" data-name="create from articles" xmlns="http://www.w3.org/2000/svg" width="16.067" height="14.184" viewBox="0 0 16.067 14.184">
  <path id="Path_205" data-name="Path 205" d="M451.875,122h1.887v6.59h-1.887Zm0,0" transform="translate(-437.694 -118.171)" fill="#fff"/>
  <path id="Path_206" data-name="Path 206" d="M364.046,2a2.359,2.359,0,0,0-2.359,2.354v.471H366.4V4.354A2.359,2.359,0,0,0,364.046,2Zm0,0" transform="translate(-350.337 -1.937)" fill="#fff"/>
  <path id="Path_207" data-name="Path 207" d="M370.422,364.614a.473.473,0,0,0,.785,0L372.954,362h-4.278Zm0,0" transform="translate(-357.106 -350.64)" fill="#fff"/>
  <path id="Path_208" data-name="Path 208" d="M361.688,122h1.887v6.59h-1.887Zm0,0" transform="translate(-350.338 -118.171)" fill="#fff"/>
  <path id="Path_209" data-name="Path 209" d="M6.635,3.3V0H.471A.471.471,0,0,0,0,.471V13.714a.471.471,0,0,0,.472.471H9.905a.471.471,0,0,0,.472-.469l.03-9.949h-3.3A.471.471,0,0,1,6.635,3.3ZM8.05,12.27H2.39a.471.471,0,1,1,0-.941H8.05a.471.471,0,1,1,0,.941Zm0-1.883H2.39a.471.471,0,1,1,0-.941H8.05a.471.471,0,1,1,0,.941Zm0-1.883H2.39a.471.471,0,1,1,0-.941H8.05a.471.471,0,1,1,0,.941Zm.472-2.354a.471.471,0,0,1-.472.471H2.39a.471.471,0,1,1,0-.941H8.05A.471.471,0,0,1,8.522,6.151Zm0,0" transform="translate(0)" fill="#fff"/>
  <path id="Path_210" data-name="Path 210" d="M241.5,8.785v2.549h2.554Zm0,0" transform="translate(-233.925 -8.509)" fill="#fff"/>
</svg>
