<svg id="create_ebook_wht" data-name="create ebook wht" xmlns="http://www.w3.org/2000/svg" width="24.533" height="24.533" viewBox="0 0 24.533 24.533">
  <path id="Path_56" data-name="Path 56" d="M0,0H24.533V24.533H0Z" fill="none"/>
  <path id="Path_57" data-name="Path 57" d="M6.044,8.089H4V22.4a2.044,2.044,0,0,0,2.044,2.044H20.355V22.4H6.044ZM22.4,4H10.133A2.044,2.044,0,0,0,8.089,6.044V18.311a2.044,2.044,0,0,0,2.044,2.044H22.4a2.044,2.044,0,0,0,2.044-2.044V6.044A2.044,2.044,0,0,0,22.4,4Zm-1.022,9.2H11.155V11.155H21.377Zm-4.089,4.089H11.155V15.244h6.133Zm4.089-8.178H11.155V7.067H21.377Z" transform="translate(-1.956 -1.956)" fill="#fff"/>
</svg>
