<svg xmlns="http://www.w3.org/2000/svg" width="34.173" height="37" viewBox="0 0 34.173 37">
  <g id="flat_grapic" data-name="flat grapic" transform="translate(-3 -3)">
    <path id="Path_66" data-name="Path 66" d="M3,5.643A2.548,2.548,0,0,1,5.441,3H34.732a2.548,2.548,0,0,1,2.441,2.643v5.286a2.548,2.548,0,0,1-2.441,2.643H5.441A2.548,2.548,0,0,1,3,10.929Z" transform="translate(0 0)" fill="#fff"/>
    <path id="Path_67" data-name="Path 67" d="M3,11.643A2.643,2.643,0,0,1,5.643,9H21.5a2.643,2.643,0,0,1,2.643,2.643V27.5A2.643,2.643,0,0,1,21.5,30.143H5.643A2.643,2.643,0,0,1,3,27.5Z" transform="translate(0 9.857)" fill="#fff"/>
    <path id="Path_68" data-name="Path 68" d="M15.643,9A2.643,2.643,0,0,0,13,11.643V27.5a2.643,2.643,0,0,0,2.643,2.643h5.286A2.643,2.643,0,0,0,23.571,27.5V11.643A2.643,2.643,0,0,0,20.929,9Z" transform="translate(13.602 9.857)" fill="#fff"/>
  </g>
</svg>
