<svg id="information_1_" data-name="information (1)" xmlns="http://www.w3.org/2000/svg" width="22.814" height="22.814" viewBox="0 0 22.814 22.814">
  <g id="Group_15" data-name="Group 15">
    <path id="Path_107" data-name="Path 107" d="M11.407,0A11.407,11.407,0,1,0,22.814,11.407,11.419,11.419,0,0,0,11.407,0Zm-.475,19.012a1.426,1.426,0,1,1,1.426-1.426A1.427,1.427,0,0,1,10.932,19.012Zm1.426-5.8v1.521a.475.475,0,0,1-.475.475h-1.9a.475.475,0,0,1-.475-.475V12.358a1.9,1.9,0,0,1,1.9-1.9,1.9,1.9,0,1,0-1.9-1.9v.475a.475.475,0,0,1-.475.475h-1.9a.475.475,0,0,1-.475-.475V8.555a4.753,4.753,0,1,1,5.7,4.658Z" fill="#38f66b"/>
  </g>
</svg>
