<svg xmlns="http://www.w3.org/2000/svg" width="47.518" height="38.528" viewBox="0 0 47.518 38.528">
  <g id="list" transform="translate(0 -37.333)">
    <g id="Group_610" data-name="Group 610" transform="translate(0 37.333)">
      <g id="Group_609" data-name="Group 609" transform="translate(0 0)">
        <path id="Path_502" data-name="Path 502" d="M3.853,37.333a3.853,3.853,0,1,0,3.853,3.853A3.848,3.848,0,0,0,3.853,37.333Z" transform="translate(0 -37.333)"/>
        <path id="Path_503" data-name="Path 503" d="M3.853,165.333a3.853,3.853,0,1,0,3.853,3.853A3.848,3.848,0,0,0,3.853,165.333Z" transform="translate(0 -149.922)"/>
        <path id="Path_504" data-name="Path 504" d="M3.853,293.333a3.853,3.853,0,1,0,3.853,3.853A3.848,3.848,0,0,0,3.853,293.333Z" transform="translate(0 -262.511)"/>
        <rect id="Rectangle_279" data-name="Rectangle 279" width="35.959" height="5.137" transform="translate(11.558 32.106)"/>
        <rect id="Rectangle_280" data-name="Rectangle 280" width="35.959" height="5.137" transform="translate(11.558 1.284)"/>
        <rect id="Rectangle_281" data-name="Rectangle 281" width="35.959" height="5.137" transform="translate(11.558 16.695)"/>
      </g>
    </g>
  </g>
</svg>
