<svg xmlns="http://www.w3.org/2000/svg" xmlns:xlink="http://www.w3.org/1999/xlink" width="1279" height="678" viewBox="0 0 1279 678">
  <defs>
    <clipPath id="clip-path">
      <rect id="Rectangle_124" data-name="Rectangle 124" width="1279" height="678" transform="translate(641 308)" fill="#fff" stroke="#707070" stroke-width="1"/>
    </clipPath>
    <clipPath id="clip-path-2">
      <rect width="353" height="396" fill="none"/>
    </clipPath>
  </defs>
  <g id="Mask_Group_3" data-name="Mask Group 3" transform="translate(-641 -308)" clip-path="url(#clip-path)">
    <g id="Group_73" data-name="Group 73" transform="translate(711 308)">
      <g id="Group_72" data-name="Group 72" transform="translate(0 0)">
        <g id="Repeat_Grid_2" data-name="Repeat Grid 2" clip-path="url(#clip-path-2)">
          <g transform="translate(-12591 -1196)">
            <g id="Rectangle_123" data-name="Rectangle 123" transform="translate(12591 1196)" fill="#e6e6e6" stroke="#fffbfb" stroke-width="1">
              <rect width="353" height="412" rx="10" stroke="none"/>
              <rect x="0.5" y="0.5" width="352" height="411" rx="9.5" fill="none"/>
            </g>
          </g>
        </g>
        <g id="iconfinder_Images_4781830" transform="translate(150 173.16)">
          <g id="image" transform="translate(5.186 7.437)">
            <path id="Path_127" data-name="Path 127" d="M41.315,39.95H8a4.886,4.886,0,0,1-5-4.766V9.766A4.886,4.886,0,0,1,8,5H41.315a4.886,4.886,0,0,1,5,4.766V35.184A4.886,4.886,0,0,1,41.315,39.95ZM8,8.177A1.629,1.629,0,0,0,6.332,9.766V35.184A1.629,1.629,0,0,0,8,36.773H41.315a1.629,1.629,0,0,0,1.666-1.589V9.766a1.629,1.629,0,0,0-1.666-1.589Z" transform="translate(-3 -5)" fill="#464646"/>
            <path id="Path_128" data-name="Path 128" d="M23,18.532a4.886,4.886,0,0,1-5-4.766,5,5,0,0,1,10,0A4.886,4.886,0,0,1,23,18.532Zm0-6.355a1.59,1.59,0,1,0,1.666,1.589A1.629,1.629,0,0,0,23,12.177Z" transform="translate(6.988 -2.645)" fill="#464646"/>
            <path id="Path_129" data-name="Path 129" d="M31.959,32.534a1.688,1.688,0,0,1-1.383-.715l-7.23-10.326a1.712,1.712,0,0,0-2.765,0l-.566.794a1.722,1.722,0,0,1-2.218.328,1.546,1.546,0,0,1-.548-2.075l.55-.81a5.134,5.134,0,0,1,8.329,0l7.213,10.342a1.544,1.544,0,0,1-.466,2.192A1.62,1.62,0,0,1,31.959,32.534Z" transform="translate(6.356 2.416)" fill="#464646"/>
            <path id="Path_130" data-name="Path 130" d="M6.665,34.376a1.725,1.725,0,0,1-.9-.254,1.545,1.545,0,0,1-.5-2.192L15.644,16.646a5.061,5.061,0,0,1,4.165-2.176h0A5.066,5.066,0,0,1,23.973,16.6L34.668,31.913a1.546,1.546,0,0,1-.548,2.075,1.722,1.722,0,0,1-2.218-.328l-10.711-15.3a1.688,1.688,0,0,0-1.383-.715h0a1.686,1.686,0,0,0-1.383.731L8.064,33.645A1.687,1.687,0,0,1,6.665,34.376Z" transform="translate(-1.667 0.574)" fill="#464646"/>
          </g>
          <g id="frame" transform="translate(0 0)">
            <rect id="Rectangle_72" data-name="Rectangle 72" width="54" height="51" transform="translate(0 -0.16)" fill="none"/>
          </g>
        </g>
      </g>
      <g id="Group_72-2" data-name="Group 72" transform="translate(393 0)">
        <g id="Repeat_Grid_2-2" data-name="Repeat Grid 2" clip-path="url(#clip-path-2)">
          <g transform="translate(-12591 -1196)">
            <g id="Rectangle_123-2" data-name="Rectangle 123" transform="translate(12591 1196)" fill="#e6e6e6" stroke="#fffbfb" stroke-width="1">
              <rect width="353" height="412" rx="10" stroke="none"/>
              <rect x="0.5" y="0.5" width="352" height="411" rx="9.5" fill="none"/>
            </g>
          </g>
        </g>
        <g id="iconfinder_Images_4781830-2" data-name="iconfinder_Images_4781830" transform="translate(150 173.16)">
          <g id="Layer_2" data-name="Layer 2" transform="translate(5.186 7.437)">
            <path id="Path_127-2" data-name="Path 127" d="M41.315,39.95H8a4.886,4.886,0,0,1-5-4.766V9.766A4.886,4.886,0,0,1,8,5H41.315a4.886,4.886,0,0,1,5,4.766V35.184A4.886,4.886,0,0,1,41.315,39.95ZM8,8.177A1.629,1.629,0,0,0,6.332,9.766V35.184A1.629,1.629,0,0,0,8,36.773H41.315a1.629,1.629,0,0,0,1.666-1.589V9.766a1.629,1.629,0,0,0-1.666-1.589Z" transform="translate(-3 -5)"/>
            <path id="Path_128-2" data-name="Path 128" d="M23,18.532a4.886,4.886,0,0,1-5-4.766,5,5,0,0,1,10,0A4.886,4.886,0,0,1,23,18.532Zm0-6.355a1.59,1.59,0,1,0,1.666,1.589A1.629,1.629,0,0,0,23,12.177Z" transform="translate(6.988 -2.645)"/>
            <path id="Path_129-2" data-name="Path 129" d="M31.959,32.534a1.688,1.688,0,0,1-1.383-.715l-7.23-10.326a1.712,1.712,0,0,0-2.765,0l-.566.794a1.722,1.722,0,0,1-2.218.328,1.546,1.546,0,0,1-.548-2.075l.55-.81a5.134,5.134,0,0,1,8.329,0l7.213,10.342a1.544,1.544,0,0,1-.466,2.192A1.62,1.62,0,0,1,31.959,32.534Z" transform="translate(6.356 2.416)"/>
            <path id="Path_130-2" data-name="Path 130" d="M6.665,34.376a1.725,1.725,0,0,1-.9-.254,1.545,1.545,0,0,1-.5-2.192L15.644,16.646a5.061,5.061,0,0,1,4.165-2.176h0A5.066,5.066,0,0,1,23.973,16.6L34.668,31.913a1.546,1.546,0,0,1-.548,2.075,1.722,1.722,0,0,1-2.218-.328l-10.711-15.3a1.688,1.688,0,0,0-1.383-.715h0a1.686,1.686,0,0,0-1.383.731L8.064,33.645A1.687,1.687,0,0,1,6.665,34.376Z" transform="translate(-1.667 0.574)"/>
          </g>
          <g id="frame-2" data-name="frame" transform="translate(0 0)">
            <rect id="Rectangle_72-2" data-name="Rectangle 72" width="54" height="51" transform="translate(0 -0.16)" fill="none"/>
          </g>
        </g>
      </g>
      <g id="Group_72-3" data-name="Group 72" transform="translate(786 0)">
        <g id="Repeat_Grid_2-3" data-name="Repeat Grid 2" clip-path="url(#clip-path-2)">
          <g transform="translate(-12591 -1196)">
            <g id="Rectangle_123-3" data-name="Rectangle 123" transform="translate(12591 1196)" fill="#e6e6e6" stroke="#fffbfb" stroke-width="1">
              <rect width="353" height="412" rx="10" stroke="none"/>
              <rect x="0.5" y="0.5" width="352" height="411" rx="9.5" fill="none"/>
            </g>
          </g>
        </g>
        <g id="iconfinder_Images_4781830-3" data-name="iconfinder_Images_4781830" transform="translate(150 173.16)">
          <g id="Layer_2-2" data-name="Layer 2" transform="translate(5.186 7.437)">
            <path id="Path_127-3" data-name="Path 127" d="M41.315,39.95H8a4.886,4.886,0,0,1-5-4.766V9.766A4.886,4.886,0,0,1,8,5H41.315a4.886,4.886,0,0,1,5,4.766V35.184A4.886,4.886,0,0,1,41.315,39.95ZM8,8.177A1.629,1.629,0,0,0,6.332,9.766V35.184A1.629,1.629,0,0,0,8,36.773H41.315a1.629,1.629,0,0,0,1.666-1.589V9.766a1.629,1.629,0,0,0-1.666-1.589Z" transform="translate(-3 -5)"/>
            <path id="Path_128-3" data-name="Path 128" d="M23,18.532a4.886,4.886,0,0,1-5-4.766,5,5,0,0,1,10,0A4.886,4.886,0,0,1,23,18.532Zm0-6.355a1.59,1.59,0,1,0,1.666,1.589A1.629,1.629,0,0,0,23,12.177Z" transform="translate(6.988 -2.645)"/>
            <path id="Path_129-3" data-name="Path 129" d="M31.959,32.534a1.688,1.688,0,0,1-1.383-.715l-7.23-10.326a1.712,1.712,0,0,0-2.765,0l-.566.794a1.722,1.722,0,0,1-2.218.328,1.546,1.546,0,0,1-.548-2.075l.55-.81a5.134,5.134,0,0,1,8.329,0l7.213,10.342a1.544,1.544,0,0,1-.466,2.192A1.62,1.62,0,0,1,31.959,32.534Z" transform="translate(6.356 2.416)"/>
            <path id="Path_130-3" data-name="Path 130" d="M6.665,34.376a1.725,1.725,0,0,1-.9-.254,1.545,1.545,0,0,1-.5-2.192L15.644,16.646a5.061,5.061,0,0,1,4.165-2.176h0A5.066,5.066,0,0,1,23.973,16.6L34.668,31.913a1.546,1.546,0,0,1-.548,2.075,1.722,1.722,0,0,1-2.218-.328l-10.711-15.3a1.688,1.688,0,0,0-1.383-.715h0a1.686,1.686,0,0,0-1.383.731L8.064,33.645A1.687,1.687,0,0,1,6.665,34.376Z" transform="translate(-1.667 0.574)"/>
          </g>
          <g id="frame-3" data-name="frame" transform="translate(0 0)">
            <rect id="Rectangle_72-3" data-name="Rectangle 72" width="54" height="51" transform="translate(0 -0.16)" fill="none"/>
          </g>
        </g>
      </g>
      <g id="Group_72-4" data-name="Group 72" transform="translate(0 434.825)">
        <g id="Repeat_Grid_2-4" data-name="Repeat Grid 2" transform="translate(0 0.175)" clip-path="url(#clip-path-2)">
          <g transform="translate(-12591 -1196)">
            <g id="Rectangle_123-4" data-name="Rectangle 123" transform="translate(12591 1196)" fill="#e6e6e6" stroke="#fffbfb" stroke-width="1">
              <rect width="353" height="412" rx="10" stroke="none"/>
              <rect x="0.5" y="0.5" width="352" height="411" rx="9.5" fill="none"/>
            </g>
          </g>
        </g>
        <g id="iconfinder_Images_4781830-4" data-name="iconfinder_Images_4781830" transform="translate(150 173.16)">
          <g id="Layer_2-3" data-name="Layer 2" transform="translate(5.186 7.437)">
            <path id="Path_127-4" data-name="Path 127" d="M41.315,39.95H8a4.886,4.886,0,0,1-5-4.766V9.766A4.886,4.886,0,0,1,8,5H41.315a4.886,4.886,0,0,1,5,4.766V35.184A4.886,4.886,0,0,1,41.315,39.95ZM8,8.177A1.629,1.629,0,0,0,6.332,9.766V35.184A1.629,1.629,0,0,0,8,36.773H41.315a1.629,1.629,0,0,0,1.666-1.589V9.766a1.629,1.629,0,0,0-1.666-1.589Z" transform="translate(-3 -5)"/>
            <path id="Path_128-4" data-name="Path 128" d="M23,18.532a4.886,4.886,0,0,1-5-4.766,5,5,0,0,1,10,0A4.886,4.886,0,0,1,23,18.532Zm0-6.355a1.59,1.59,0,1,0,1.666,1.589A1.629,1.629,0,0,0,23,12.177Z" transform="translate(6.988 -2.645)"/>
            <path id="Path_129-4" data-name="Path 129" d="M31.959,32.534a1.688,1.688,0,0,1-1.383-.715l-7.23-10.326a1.712,1.712,0,0,0-2.765,0l-.566.794a1.722,1.722,0,0,1-2.218.328,1.546,1.546,0,0,1-.548-2.075l.55-.81a5.134,5.134,0,0,1,8.329,0l7.213,10.342a1.544,1.544,0,0,1-.466,2.192A1.62,1.62,0,0,1,31.959,32.534Z" transform="translate(6.356 2.416)"/>
            <path id="Path_130-4" data-name="Path 130" d="M6.665,34.376a1.725,1.725,0,0,1-.9-.254,1.545,1.545,0,0,1-.5-2.192L15.644,16.646a5.061,5.061,0,0,1,4.165-2.176h0A5.066,5.066,0,0,1,23.973,16.6L34.668,31.913a1.546,1.546,0,0,1-.548,2.075,1.722,1.722,0,0,1-2.218-.328l-10.711-15.3a1.688,1.688,0,0,0-1.383-.715h0a1.686,1.686,0,0,0-1.383.731L8.064,33.645A1.687,1.687,0,0,1,6.665,34.376Z" transform="translate(-1.667 0.574)"/>
          </g>
          <g id="frame-4" data-name="frame" transform="translate(0 0)">
            <rect id="Rectangle_72-4" data-name="Rectangle 72" width="54" height="51" transform="translate(0 0.015)" fill="none"/>
          </g>
        </g>
      </g>
      <g id="Group_72-5" data-name="Group 72" transform="translate(393 434.825)">
        <g id="Repeat_Grid_2-5" data-name="Repeat Grid 2" transform="translate(0 0.175)" clip-path="url(#clip-path-2)">
          <g transform="translate(-12591 -1196)">
            <g id="Rectangle_123-5" data-name="Rectangle 123" transform="translate(12591 1196)" fill="#e6e6e6" stroke="#fffbfb" stroke-width="1">
              <rect width="353" height="412" rx="10" stroke="none"/>
              <rect x="0.5" y="0.5" width="352" height="411" rx="9.5" fill="none"/>
            </g>
          </g>
        </g>
        <g id="iconfinder_Images_4781830-5" data-name="iconfinder_Images_4781830" transform="translate(150 173.16)">
          <g id="Layer_2-4" data-name="Layer 2" transform="translate(5.186 7.437)">
            <path id="Path_127-5" data-name="Path 127" d="M41.315,39.95H8a4.886,4.886,0,0,1-5-4.766V9.766A4.886,4.886,0,0,1,8,5H41.315a4.886,4.886,0,0,1,5,4.766V35.184A4.886,4.886,0,0,1,41.315,39.95ZM8,8.177A1.629,1.629,0,0,0,6.332,9.766V35.184A1.629,1.629,0,0,0,8,36.773H41.315a1.629,1.629,0,0,0,1.666-1.589V9.766a1.629,1.629,0,0,0-1.666-1.589Z" transform="translate(-3 -5)"/>
            <path id="Path_128-5" data-name="Path 128" d="M23,18.532a4.886,4.886,0,0,1-5-4.766,5,5,0,0,1,10,0A4.886,4.886,0,0,1,23,18.532Zm0-6.355a1.59,1.59,0,1,0,1.666,1.589A1.629,1.629,0,0,0,23,12.177Z" transform="translate(6.988 -2.645)"/>
            <path id="Path_129-5" data-name="Path 129" d="M31.959,32.534a1.688,1.688,0,0,1-1.383-.715l-7.23-10.326a1.712,1.712,0,0,0-2.765,0l-.566.794a1.722,1.722,0,0,1-2.218.328,1.546,1.546,0,0,1-.548-2.075l.55-.81a5.134,5.134,0,0,1,8.329,0l7.213,10.342a1.544,1.544,0,0,1-.466,2.192A1.62,1.62,0,0,1,31.959,32.534Z" transform="translate(6.356 2.416)"/>
            <path id="Path_130-5" data-name="Path 130" d="M6.665,34.376a1.725,1.725,0,0,1-.9-.254,1.545,1.545,0,0,1-.5-2.192L15.644,16.646a5.061,5.061,0,0,1,4.165-2.176h0A5.066,5.066,0,0,1,23.973,16.6L34.668,31.913a1.546,1.546,0,0,1-.548,2.075,1.722,1.722,0,0,1-2.218-.328l-10.711-15.3a1.688,1.688,0,0,0-1.383-.715h0a1.686,1.686,0,0,0-1.383.731L8.064,33.645A1.687,1.687,0,0,1,6.665,34.376Z" transform="translate(-1.667 0.574)"/>
          </g>
          <g id="frame-5" data-name="frame" transform="translate(0 0)">
            <rect id="Rectangle_72-5" data-name="Rectangle 72" width="54" height="51" transform="translate(0 0.015)" fill="none"/>
          </g>
        </g>
      </g>
      <g id="Group_72-6" data-name="Group 72" transform="translate(786 434.825)">
        <g id="Repeat_Grid_2-6" data-name="Repeat Grid 2" transform="translate(0 0.175)" clip-path="url(#clip-path-2)">
          <g transform="translate(-12591 -1196)">
            <g id="Rectangle_123-6" data-name="Rectangle 123" transform="translate(12591 1196)" fill="#e6e6e6" stroke="#fffbfb" stroke-width="1">
              <rect width="353" height="412" rx="10" stroke="none"/>
              <rect x="0.5" y="0.5" width="352" height="411" rx="9.5" fill="none"/>
            </g>
          </g>
        </g>
        <g id="iconfinder_Images_4781830-6" data-name="iconfinder_Images_4781830" transform="translate(150 173.16)">
          <g id="Layer_2-5" data-name="Layer 2" transform="translate(5.186 7.437)">
            <path id="Path_127-6" data-name="Path 127" d="M41.315,39.95H8a4.886,4.886,0,0,1-5-4.766V9.766A4.886,4.886,0,0,1,8,5H41.315a4.886,4.886,0,0,1,5,4.766V35.184A4.886,4.886,0,0,1,41.315,39.95ZM8,8.177A1.629,1.629,0,0,0,6.332,9.766V35.184A1.629,1.629,0,0,0,8,36.773H41.315a1.629,1.629,0,0,0,1.666-1.589V9.766a1.629,1.629,0,0,0-1.666-1.589Z" transform="translate(-3 -5)"/>
            <path id="Path_128-6" data-name="Path 128" d="M23,18.532a4.886,4.886,0,0,1-5-4.766,5,5,0,0,1,10,0A4.886,4.886,0,0,1,23,18.532Zm0-6.355a1.59,1.59,0,1,0,1.666,1.589A1.629,1.629,0,0,0,23,12.177Z" transform="translate(6.988 -2.645)"/>
            <path id="Path_129-6" data-name="Path 129" d="M31.959,32.534a1.688,1.688,0,0,1-1.383-.715l-7.23-10.326a1.712,1.712,0,0,0-2.765,0l-.566.794a1.722,1.722,0,0,1-2.218.328,1.546,1.546,0,0,1-.548-2.075l.55-.81a5.134,5.134,0,0,1,8.329,0l7.213,10.342a1.544,1.544,0,0,1-.466,2.192A1.62,1.62,0,0,1,31.959,32.534Z" transform="translate(6.356 2.416)"/>
            <path id="Path_130-6" data-name="Path 130" d="M6.665,34.376a1.725,1.725,0,0,1-.9-.254,1.545,1.545,0,0,1-.5-2.192L15.644,16.646a5.061,5.061,0,0,1,4.165-2.176h0A5.066,5.066,0,0,1,23.973,16.6L34.668,31.913a1.546,1.546,0,0,1-.548,2.075,1.722,1.722,0,0,1-2.218-.328l-10.711-15.3a1.688,1.688,0,0,0-1.383-.715h0a1.686,1.686,0,0,0-1.383.731L8.064,33.645A1.687,1.687,0,0,1,6.665,34.376Z" transform="translate(-1.667 0.574)"/>
          </g>
          <g id="frame-6" data-name="frame" transform="translate(0 0)">
            <rect id="Rectangle_72-6" data-name="Rectangle 72" width="54" height="51" transform="translate(0 0.015)" fill="none"/>
          </g>
        </g>
      </g>
    </g>
  </g>
</svg>
