<svg xmlns="http://www.w3.org/2000/svg" width="19.459" height="27.664" viewBox="0 0 19.459 27.664">
  <g id="my_funnels" data-name="my funnels" transform="translate(-66.09)">
    <g id="my_funnel" data-name="my funnel" transform="translate(66.09)">
      <g id="Group_17" data-name="Group 17">
        <path id="Path_110" data-name="Path 110" d="M66.09,193.828v2.043L74,202.649a.551.551,0,0,1,.195.357v6.454l3.243-1.784v-4.67a.551.551,0,0,1,.195-.357l7.913-6.778v-2.043H66.09Z" transform="translate(-66.09 -181.796)" fill="#1d1eab"/>
        <circle id="Ellipse_3" data-name="Ellipse 3" cx="1.654" cy="1.654" r="1.654" transform="translate(0.714 5.708)" fill="#1d1eab"/>
        <path id="Path_111" data-name="Path 111" d="M277.678,83.61a2.108,2.108,0,1,0,0-.032C277.678,83.588,277.678,83.6,277.678,83.61Z" transform="translate(-264.543 -76.443)" fill="#1d1eab"/>
        <circle id="Ellipse_4" data-name="Ellipse 4" cx="1.005" cy="1.005" r="1.005" transform="translate(7.719 3.567)" fill="#1d1eab"/>
        <path id="Path_112" data-name="Path 112" d="M254.131,2.011a1.005,1.005,0,0,0,0-2.011h0a1.005,1.005,0,0,0,0,2.011Z" transform="translate(-241.515)" fill="#1d1eab"/>
      </g>
    </g>
  </g>
</svg>
