<svg xmlns="http://www.w3.org/2000/svg" width="18.351" height="18.351" viewBox="0 0 18.351 18.351">
  <path id="new_work_space" data-name="new work space" d="M9.175,0a9.175,9.175,0,1,0,9.175,9.175A9.175,9.175,0,0,0,9.175,0ZM13.01,9.468a.492.492,0,0,1-.518.509H9.977l0,2.526a.449.449,0,0,1-.451.507H8.831a.453.453,0,0,1-.462-.508l0-2.524H5.848a.449.449,0,0,1-.508-.45V8.835a.453.453,0,0,1,.508-.463H8.374l0-2.471c0-.117.041-.563.492-.562h.6a.491.491,0,0,1,.509.518l0,2.514h2.469c.117,0,.563.04.563.492v.6Z" fill="#fff"/>
</svg>
