<svg xmlns="http://www.w3.org/2000/svg" width="36.68" height="40" viewBox="0 0 36.68 40">
  <g id="notification" transform="translate(-40 -20)">
    <path id="Path_148" data-name="Path 148" d="M76.476,52.3a1.658,1.658,0,0,0-.61-.627l-1.836-1.1a4.813,4.813,0,0,1-2.349-4.13V36.576A13.269,13.269,0,0,0,62.1,23.86a.573.573,0,0,1-.418-.545,3.306,3.306,0,0,0-.976-2.344,3.347,3.347,0,0,0-4.714,0,3.306,3.306,0,0,0-.976,2.344.571.571,0,0,1-.118.342.577.577,0,0,1-.3.2,13.269,13.269,0,0,0-9.584,12.716V46.45a4.813,4.813,0,0,1-2.349,4.13l-1.836,1.1a1.685,1.685,0,0,0,.848,3.133h33.34a1.709,1.709,0,0,0,1.437-.846,1.689,1.689,0,0,0,.024-1.66Z" transform="translate(0 0)"/>
    <path id="Path_149" data-name="Path 149" d="M202.877,455.166a5.179,5.179,0,0,0,7.875-2.506h-9.765A5.2,5.2,0,0,0,202.877,455.166Z" transform="translate(-147.525 -396.117)"/>
  </g>
</svg>
