<svg xmlns="http://www.w3.org/2000/svg" width="31" height="29" viewBox="0 0 31 29">
  <g id="renerate_ebook" data-name="renerate ebook" transform="translate(0 -0.488)">
    <ellipse id="Ellipse_19" data-name="Ellipse 19" cx="15.5" cy="14.5" rx="15.5" ry="14.5" transform="translate(0 0.488)" fill="#0cee48"/>
    <g id="Solid" transform="translate(5.78 5.569)">
      <path id="Path_228" data-name="Path 228" d="M166.325,28.782a6.653,6.653,0,0,1,7.485.831h-.8a.98.98,0,0,0,0,1.959h3a.98.98,0,0,0,.98-.98v-3a.98.98,0,0,0-1.959,0v.482a8.614,8.614,0,0,0-9.633-1.023.98.98,0,1,0,.926,1.726Z" transform="translate(-159.461 -26.036)" fill="#fff"/>
      <path id="Path_229" data-name="Path 229" d="M31.134,134.3a6.653,6.653,0,0,1-3.43-6.412,6.755,6.755,0,0,1,.1-.695l.418.724a.979.979,0,1,0,1.7-.98l-1.5-2.595a.98.98,0,0,0-1.338-.359l-2.595,1.5a.98.98,0,1,0,.98,1.7l.389-.224q-.067.377-.1.762a8.612,8.612,0,0,0,4.44,8.3.979.979,0,1,0,.941-1.718Z" transform="translate(-23.996 -120.189)" fill="#fff"/>
      <path id="Path_230" data-name="Path 230" d="M267.773,211.806h0a.98.98,0,0,0-.975.984c0,.205-.008.414-.026.62a6.65,6.65,0,0,1-4.416,5.692l.4-.689a.979.979,0,0,0-1.7-.98l-1.5,2.591,0,0a.98.98,0,0,0,.359,1.337l2.595,1.5a.98.98,0,1,0,.98-1.7l-.419-.242a8.607,8.607,0,0,0,5.65-7.345c.023-.265.034-.535.033-.8A.98.98,0,0,0,267.773,211.806Z" transform="translate(-250.144 -204.55)" fill="#fff"/>
    </g>
  </g>
</svg>
