<svg xmlns="http://www.w3.org/2000/svg" width="15.841" height="19.869" viewBox="0 0 15.841 19.869">
  <path id="reseller_wht" data-name="reseller wht" d="M65.884.1H53.957A1.976,1.976,0,0,0,52,2.08v15.9a1.976,1.976,0,0,0,1.957,1.98c.982.182,2.854-2.124,5.389-5.544.458-.613.846-.365,1.107-.008,2.815,3.867,4.838,5.676,5.432,5.552a1.974,1.974,0,0,0,1.957-1.98V2.08A1.976,1.976,0,0,0,65.884.1ZM58.01,3.229,58.9,3.1a.373.373,0,0,0,.283-.206l.4-.808a.377.377,0,0,1,.676,0l.4.8a.373.373,0,0,0,.283.206l.893.128a.376.376,0,0,1,.21.641L61.4,4.5a.378.378,0,0,0-.109.334l.151.889a.376.376,0,0,1-.547.4l-.8-.419a.371.371,0,0,0-.349,0l-.8.419a.378.378,0,0,1-.547-.4l.151-.889a.381.381,0,0,0-.109-.334L57.8,3.87A.374.374,0,0,1,58.01,3.229Zm7.637,7.264a.57.57,0,0,1-.567.567H54.76a.57.57,0,0,1-.567-.567v-.179a.57.57,0,0,1,.567-.567H65.08a.57.57,0,0,1,.567.567Zm0-2.586a.57.57,0,0,1-.567.567H54.76a.57.57,0,0,1-.567-.567V7.729a.57.57,0,0,1,.567-.567H65.08a.57.57,0,0,1,.567.567Z" transform="translate(-52 -0.1)" fill="#f6f5f5"/>
</svg>
