<svg xmlns="http://www.w3.org/2000/svg" width="31" height="30" viewBox="0 0 31 30">
  <g id="setting" transform="translate(-1701 -504)">
    <path id="Path_498" data-name="Path 498" d="M15.5,0A15.256,15.256,0,0,1,31,15,15.256,15.256,0,0,1,15.5,30,15.256,15.256,0,0,1,0,15,15.256,15.256,0,0,1,15.5,0Z" transform="translate(1701 504)" fill="#464646"/>
    <path id="gear" d="M21.821,12.1,20,10.672a6.638,6.638,0,0,0,0-1.5l1.826-1.427a.9.9,0,0,0,.216-1.14l-1.9-3.281a.9.9,0,0,0-1.1-.4l-2.15.865a7.366,7.366,0,0,0-1.292-.75L15.271.761A.879.879,0,0,0,14.393,0h-3.8a.877.877,0,0,0-.873.754L9.384,3.045a7.638,7.638,0,0,0-1.29.751L5.938,2.929a.879.879,0,0,0-1.089.388L2.949,6.6a.888.888,0,0,0,.216,1.145L4.99,9.176a6.576,6.576,0,0,0,0,1.5L3.164,12.1a.894.894,0,0,0-.217,1.14l1.9,3.281a.9.9,0,0,0,1.1.4l2.15-.865a7.4,7.4,0,0,0,1.293.751l.331,2.282a.877.877,0,0,0,.873.762h3.8a.877.877,0,0,0,.876-.754L15.6,16.8a7.654,7.654,0,0,0,1.29-.751l2.158.868a.88.88,0,0,0,1.089-.388l1.905-3.3A.892.892,0,0,0,21.821,12.1Zm-9.33,1.96a4.135,4.135,0,1,1,4.135-4.135A4.135,4.135,0,0,1,12.49,14.059Z" transform="translate(1704.008 509.076)" fill="#fff"/>
  </g>
</svg>
