<svg xmlns="http://www.w3.org/2000/svg" width="25" height="12.341" viewBox="0 0 25 12.341">
  <path id="unlimited_version" data-name="unlimited version" d="M22.08,8.6a6.116,6.116,0,0,0-4.337,1.78L15.75,12.29,13.786,10.4a6.171,6.171,0,1,0-.027,8.75l1.993-1.911,1.965,1.885A6.171,6.171,0,1,0,22.08,8.6ZM11.259,16.6a2.658,2.658,0,0,1-3.674,0,2.6,2.6,0,0,1,1.837-4.435,2.61,2.61,0,0,1,1.864.787l1.887,1.814Zm12.657,0a2.64,2.64,0,0,1-3.7-.026l-1.887-1.814,1.913-1.836a2.662,2.662,0,0,1,3.675,0,2.6,2.6,0,0,1,0,3.678Z" transform="translate(-3.251 -8.596)" fill="#dbdb09"/>
</svg>
