<svg xmlns="http://www.w3.org/2000/svg" width="18.164" height="23.895" viewBox="0 0 18.164 23.895">
  <g id="upgrade_wht" data-name="upgrade wht" transform="translate(-60.444 0)">
    <path id="Path_113" data-name="Path 113" d="M236.781,249.257a.759.759,0,0,0-.758.759v10.561a.759.759,0,1,0,1.517,0V250.016A.759.759,0,0,0,236.781,249.257Z" transform="translate(-167.254 -237.44)" fill="#f6f5f5"/>
    <path id="Path_114" data-name="Path 114" d="M139.218,10.3a2.279,2.279,0,0,1,2.234,1.842h3.38c-.106-5.494-2.374-9.771-5.141-11.976a.759.759,0,0,0-.945,0c-2.766,2.2-5.035,6.484-5.141,11.976h3.38a2.279,2.279,0,0,1,2.234-1.842Zm-1.2-4.134a1.7,1.7,0,1,1,0,2.4A1.7,1.7,0,0,1,138.016,6.165Z" transform="translate(-69.691)" fill="#f6f5f5"/>
    <path id="Path_115" data-name="Path 115" d="M300.022,288.114v5.392H301.7a.759.759,0,0,0,.72-.518,18.651,18.651,0,0,0,.917-4.873h-3.311Z" transform="translate(-228.22 -274.455)" fill="#f6f5f5"/>
    <path id="Path_116" data-name="Path 116" d="M137.5,288.115h-3.311a18.651,18.651,0,0,0,.917,4.873.759.759,0,0,0,.719.518H137.5Z" transform="translate(-70.246 -274.456)" fill="#f6f5f5"/>
    <path id="Path_117" data-name="Path 117" d="M65.577,284.495a2.273,2.273,0,0,1-2.159-1.555,44.064,44.064,0,0,1-1.042-5.877,5.059,5.059,0,0,0-1.385,6.263l1.714,3.384a.759.759,0,0,0,1.1.285,5.488,5.488,0,0,0,2.016-2.5Z" transform="translate(0 -263.927)" fill="#f6f5f5"/>
    <path id="Path_118" data-name="Path 118" d="M333.585,277.063a44.067,44.067,0,0,1-1.042,5.877,2.273,2.273,0,0,1-2.158,1.555h-.247a5.488,5.488,0,0,0,2.016,2.5.759.759,0,0,0,1.1-.285l1.714-3.384A5.059,5.059,0,0,0,333.585,277.063Z" transform="translate(-256.908 -263.928)" fill="#f6f5f5"/>
  </g>
</svg>
