<svg xmlns="http://www.w3.org/2000/svg" width="38" height="38" viewBox="0 0 38 38">
  <path id="_2_column_image" data-name="2 column image" d="M4.455,7.909H1V35.545A3.465,3.465,0,0,0,4.455,39H32.091V35.545H4.455ZM35.545,1H11.364A3.465,3.465,0,0,0,7.909,4.455V28.636a3.465,3.465,0,0,0,3.455,3.455H35.545A3.465,3.465,0,0,0,39,28.636V4.455A3.465,3.465,0,0,0,35.545,1Zm0,27.636H11.364V4.455H35.545Zm-6.909-6.909H21.727V18.273h3.455a3.454,3.454,0,0,0,3.455-3.455V11.364a3.454,3.454,0,0,0-3.455-3.455H18.273v3.455h6.909v3.455H21.727a3.454,3.454,0,0,0-3.455,3.455v6.909H28.636Z" transform="translate(-1 -1)"/>
</svg>
