<svg xmlns="http://www.w3.org/2000/svg" width="35.331" height="35.396" viewBox="0 0 35.331 35.396">
  <g id="_3d_graphics" data-name="3d graphics" transform="translate(-4.6 -4.6)">
    <path id="Path_46" data-name="Path 46" d="M5.761,46.789l13.8,5.932a6.608,6.608,0,0,0,5.416,0l13.8-5.932a1.886,1.886,0,0,0,0-3.482l-2.192-.967a3.771,3.771,0,0,0-2.9,0L26.2,45.564a8.783,8.783,0,0,1-2.9.774,9.2,9.2,0,0,1-4.771-.709L10.854,42.34a3.771,3.771,0,0,0-2.9,0l-2.192.967A1.885,1.885,0,0,0,5.761,46.789Z" transform="translate(0 -13.305)" fill="#fbfbfb"/>
    <path id="Path_47" data-name="Path 47" d="M5.761,14.593l13.8,5.932a6.609,6.609,0,0,0,5.416,0l13.8-5.932a1.886,1.886,0,0,0,0-3.482L24.974,5.18a6.609,6.609,0,0,0-5.416,0l-13.8,5.867A1.935,1.935,0,0,0,5.761,14.593Z" transform="translate(0)" fill="#fbfbfb"/>
    <path id="Path_48" data-name="Path 48" d="M5.761,32.089l13.8,5.932a6.609,6.609,0,0,0,5.416,0l13.8-5.932a1.886,1.886,0,0,0,0-3.482l-2.192-.967a3.771,3.771,0,0,0-2.9,0L26.2,30.864a8.782,8.782,0,0,1-2.9.774,9.2,9.2,0,0,1-4.771-.709L10.854,27.64a3.771,3.771,0,0,0-2.9,0l-2.192.967A1.886,1.886,0,0,0,5.761,32.089Z" transform="translate(0 -8.082)" fill="#fbfbfb"/>
  </g>
</svg>
