<svg xmlns="http://www.w3.org/2000/svg" width="34.425" height="37" viewBox="0 0 34.425 37">
  <g id="bonus_page_builder" data-name="bonus page builder" transform="translate(-1520.227 -265)">
    <g id="icons" transform="translate(1520.227 273.232)">
      <g id="new" transform="translate(0 0)">
        <path id="Path_33" data-name="Path 33" d="M22.391,10.154A3.247,3.247,0,0,1,19.1,6.884V2.308A1.239,1.239,0,0,0,17.787,1H7.262A5.262,5.262,0,0,0,2,6.231V24.538a5.262,5.262,0,0,0,5.262,5.231H23.049a5.262,5.262,0,0,0,5.262-5.231V11.461A1.239,1.239,0,0,0,27,10.154Zm-4.6,11.769H9.893a1.308,1.308,0,1,1,0-2.615h7.893a1.308,1.308,0,1,1,0,2.615Zm2.631-5.231H9.893a1.308,1.308,0,1,1,0-2.615H20.418a1.308,1.308,0,1,1,0,2.615Z" transform="translate(-2 -1)" fill="#f9f8f8"/>
      </g>
    </g>
    <g id="icons-2" data-name="icons" transform="translate(1538.307 265)">
      <path id="add" d="M9.173,1a8.173,8.173,0,1,0,8.173,8.173A8.149,8.149,0,0,0,9.173,1Zm3.715,9.659H10.659v2.229a1.486,1.486,0,0,1-2.972,0V10.659H5.458a1.486,1.486,0,1,1,0-2.972H7.687V5.458a1.486,1.486,0,0,1,2.972,0V7.687h2.229a1.486,1.486,0,1,1,0,2.972Z" transform="translate(-1 -1)" fill="#f9f8f8"/>
    </g>
  </g>
</svg>
