<svg xmlns="http://www.w3.org/2000/svg" width="33" height="33" viewBox="0 0 33 33">
  <g id="columns" transform="translate(0 0.043)">
    <g id="Group_592" data-name="Group 592" transform="translate(0 7.891)">
      <g id="Group_591" data-name="Group 591" transform="translate(0 0)">
        <rect id="Rectangle_270" data-name="Rectangle 270" width="15" height="2" transform="translate(0 0.067)"/>
      </g>
    </g>
    <g id="Group_594" data-name="Group 594" transform="translate(0 0.178)">
      <g id="Group_593" data-name="Group 593">
        <rect id="Rectangle_271" data-name="Rectangle 271" width="15" height="3" transform="translate(0 -0.221)"/>
      </g>
    </g>
    <g id="Group_596" data-name="Group 596" transform="translate(0 30.547)">
      <g id="Group_595" data-name="Group 595" transform="translate(0 0)">
        <rect id="Rectangle_272" data-name="Rectangle 272" width="15" height="2" transform="translate(0 0.41)"/>
      </g>
    </g>
    <g id="Group_598" data-name="Group 598" transform="translate(0 22.834)">
      <g id="Group_597" data-name="Group 597" transform="translate(0 0)">
        <rect id="Rectangle_273" data-name="Rectangle 273" width="15" height="2" transform="translate(0 0.123)"/>
      </g>
    </g>
    <g id="Group_600" data-name="Group 600" transform="translate(0 15.121)">
      <g id="Group_599" data-name="Group 599" transform="translate(0 0)">
        <rect id="Rectangle_274" data-name="Rectangle 274" width="15" height="3" transform="translate(0 -0.164)"/>
      </g>
    </g>
    <g id="Group_602" data-name="Group 602" transform="translate(17.836 7.891)">
      <g id="Group_601" data-name="Group 601" transform="translate(0 0)">
        <rect id="Rectangle_275" data-name="Rectangle 275" width="15" height="2" transform="translate(0.164 0.067)"/>
      </g>
    </g>
    <g id="Group_604" data-name="Group 604" transform="translate(17.836 0.178)">
      <g id="Group_603" data-name="Group 603" transform="translate(0)">
        <rect id="Rectangle_276" data-name="Rectangle 276" width="15" height="3" transform="translate(0.164 -0.221)"/>
      </g>
    </g>
    <g id="Group_606" data-name="Group 606" transform="translate(17.836 22.834)">
      <g id="Group_605" data-name="Group 605" transform="translate(0 0)">
        <rect id="Rectangle_277" data-name="Rectangle 277" width="15" height="2" transform="translate(0.164 0.123)"/>
      </g>
    </g>
    <g id="Group_608" data-name="Group 608" transform="translate(17.836 15.121)">
      <g id="Group_607" data-name="Group 607" transform="translate(0 0)">
        <rect id="Rectangle_278" data-name="Rectangle 278" width="15" height="3" transform="translate(0.164 -0.164)"/>
      </g>
    </g>
  </g>
</svg>
