<svg xmlns="http://www.w3.org/2000/svg" width="40.092" height="40.088" viewBox="0 0 40.092 40.088">
  <g id="copyright-symbol" transform="translate(0 -0.018)">
    <path id="Path_500" data-name="Path 500" d="M20.046.018A20.044,20.044,0,1,0,40.092,20.062,20.066,20.066,0,0,0,20.046.018Zm0,35.622A15.58,15.58,0,1,1,35.626,20.062,15.6,15.6,0,0,1,20.046,35.64Z"/>
    <path id="Path_501" data-name="Path 501" d="M98.016,92.055a7.194,7.194,0,1,1,0-7.266l.166.287h4.831l-.29-.778a11.681,11.681,0,1,0,0,8.248l.29-.778H98.182Z" transform="translate(-71.391 -68.362)"/>
  </g>
</svg>
