<svg xmlns="http://www.w3.org/2000/svg" xmlns:xlink="http://www.w3.org/1999/xlink" width="48" height="48" viewBox="0 0 48 48">
  <defs>
    <filter id="Rectangle_234" x="0" y="0" width="48" height="48" filterUnits="userSpaceOnUse">
      <feOffset dy="3" input="SourceAlpha"/>
      <feGaussianBlur stdDeviation="3" result="blur"/>
      <feFlood flood-opacity="0.161"/>
      <feComposite operator="in" in2="blur"/>
      <feComposite in="SourceGraphic"/>
    </filter>
  </defs>
  <g id="delete" transform="translate(-346 -560)">
    <g transform="matrix(1, 0, 0, 1, 346, 560)" filter="url(#Rectangle_234)">
      <rect id="Rectangle_234-2" data-name="Rectangle 234" width="30" height="30" rx="4" transform="translate(9 6)" fill="#fff"/>
    </g>
    <path id="ic_cancel_24px" d="M10.7,2a8.7,8.7,0,1,0,8.7,8.7A8.692,8.692,0,0,0,10.7,2Zm4.35,11.823-1.227,1.227L10.7,11.926,7.576,15.049,6.35,13.823,9.473,10.7,6.35,7.576,7.576,6.35,10.7,9.473,13.823,6.35l1.227,1.227L11.926,10.7Z" transform="translate(359 570)" fill="#464646"/>
  </g>
</svg>
