<svg xmlns="http://www.w3.org/2000/svg" width="31" height="30" viewBox="0 0 31 30">
  <g id="download_product" data-name="download product" transform="translate(-18487 -677)">
    <ellipse id="Ellipse_21" data-name="Ellipse 21" cx="15.5" cy="15" rx="15.5" ry="15" transform="translate(18487 677)" fill="#57cf3b"/>
    <g id="upload" transform="translate(18493.977 700.675)">
      <g id="Group_110" data-name="Group 110" transform="translate(0 -20.12)">
        <path id="Path_231" data-name="Path 231" d="M16.688,320.059a.943.943,0,0,0-.694-.286H11.639a2.013,2.013,0,0,1-.719.938,1.871,1.871,0,0,1-1.127.367H7.181a1.871,1.871,0,0,1-1.127-.367,2.013,2.013,0,0,1-.719-.938H.979a.944.944,0,0,0-.694.286.944.944,0,0,0-.286.694v3.264a.944.944,0,0,0,.286.693A.944.944,0,0,0,.979,325H15.994a.975.975,0,0,0,.979-.979v-3.264A.944.944,0,0,0,16.688,320.059ZM12.863,323.5a.641.641,0,1,1,.194-.459A.628.628,0,0,1,12.863,323.5Zm2.611,0a.64.64,0,1,1,.194-.459A.627.627,0,0,1,15.474,323.5Z" transform="translate(0 -307.63)" fill="#fff"/>
        <path id="Path_232" data-name="Path 232" d="M91.732,15.343h2.611V9.912a.82.82,0,0,1,.194-.545A.584.584,0,0,1,95,9.136h2.612a.584.584,0,0,1,.459.23.82.82,0,0,1,.194.545v5.431h2.611a.621.621,0,0,1,.6.485.781.781,0,0,1-.143.836l-4.57,5.431a.572.572,0,0,1-.918,0l-4.57-5.431a.781.781,0,0,1-.143-.836A.621.621,0,0,1,91.732,15.343Z" transform="translate(-87.815 -9.136)" fill="#fff"/>
      </g>
    </g>
  </g>
</svg>
