<svg xmlns="http://www.w3.org/2000/svg" width="22" height="22" viewBox="0 0 22 22">
  <g id="edit" transform="translate(0 0.17)">
    <circle id="Ellipse_18" data-name="Ellipse 18" cx="11" cy="11" r="11" transform="translate(0 -0.17)" fill="#6fc7e8"/>
    <g id="edit-2" data-name="edit" transform="translate(4.843 4.813)">
      <path id="Path_222" data-name="Path 222" d="M8.215,1.022H7.653a1.408,1.408,0,0,0-2.708,0H4.383A.386.386,0,0,0,4,1.4v.766a.9.9,0,0,0,.894.894H7.7A.9.9,0,0,0,8.6,2.171V1.4A.386.386,0,0,0,8.215,1.022Z" transform="translate(-2.066)" fill="#fff"/>
      <path id="Path_223" data-name="Path 223" d="M7.28,3H7.152v.61a1.374,1.374,0,0,1-1.4,1.342H2.938a1.374,1.374,0,0,1-1.4-1.342V3H1.4A1.374,1.374,0,0,0,0,4.342v6.1a1.374,1.374,0,0,0,1.4,1.342h3.77l.112-.6a1.34,1.34,0,0,1,.388-.718l.409-.391H1.916a.367.367,0,1,1,0-.732H6.769a.181.181,0,0,1,.072.01h.005L8.685,7.6V4.342A1.374,1.374,0,0,0,7.28,3ZM6.769,8.492H1.916a.367.367,0,1,1,0-.732H6.769a.367.367,0,1,1,0,.732Zm0-1.587H1.916a.367.367,0,1,1,0-.732H6.769a.367.367,0,1,1,0,.732Z" transform="translate(0 -1.467)" fill="#fff"/>
      <path id="Path_224" data-name="Path 224" d="M12.16,17.971a.383.383,0,0,1-.377-.45l.271-1.535a.385.385,0,0,1,.106-.2l3.793-3.793a.78.78,0,0,1,1.174-.09l.632.632a.9.9,0,0,1,0,1.264l-3.793,3.793a.377.377,0,0,1-.2.106l-1.535.271a.365.365,0,0,1-.066.006Zm1.535-.654h0Z" transform="translate(-6.169 -6.119)" fill="#fff"/>
    </g>
  </g>
</svg>
