<svg xmlns="http://www.w3.org/2000/svg" width="9" height="9" viewBox="0 0 9 9">
  <path id="iconfinder_circle-checkmark_383161" d="M5.2,1.12a4.5,4.5,0,1,0,4.5,4.5A4.5,4.5,0,0,0,5.2,1.12Zm0,7.412A2.912,2.912,0,1,1,7.245,3.549l-.139.139-.449.5-.547.6h0l-.955.9-.076.05-.808-.795H4.264l-.082-.079-.01.008a.563.563,0,0,0-.708.071l-.239.239a.562.562,0,0,0-.071.707L3.145,5.9l.08.079.026.027.573.573.2.2L5.053,7.808l.082-.082,1-1,1-1,.868-.868A2.9,2.9,0,0,1,5.2,8.532Z" transform="translate(-0.698 -1.12)" fill="#fff"/>
</svg>
