<svg xmlns="http://www.w3.org/2000/svg" width="46.288" height="37.87" viewBox="0 0 46.288 37.87">
  <path id="images_2.0" data-name="images 2.0" d="M46.27,17.249l-4.793,23.11a1.507,1.507,0,0,1-1.463,1.211.64.64,0,0,1-.3-.05,1.462,1.462,0,0,1-1.161-1.766l4.491-21.6-28.963-5.9-.706,3.229a1.524,1.524,0,1,1-2.977-.656l1.06-4.693A1.526,1.526,0,0,1,13.22,8.974l31.889,6.459a1.456,1.456,0,0,1,.959.656A1.846,1.846,0,0,1,46.27,17.249ZM36.834,44.8a2.024,2.024,0,0,1-2.018,2.018H2.018A2.024,2.024,0,0,1,0,44.8V20.074a2.024,2.024,0,0,1,2.018-2.018h32.8a2.024,2.024,0,0,1,2.018,2.018ZM4.037,22.093V34.556l8.527-6.913a1.834,1.834,0,0,1,2.372.05l9.587,8.477,3.986-3.431a1.493,1.493,0,0,1,2.069,0l1.665,1.716V22.093ZM32.293,42.78V39.1l-2.826-2.674-3.835,3.431a1.756,1.756,0,0,1-2.271,0l-9.738-8.527L4.037,39.147V42.78ZM23.917,30.317a3.058,3.058,0,0,0,3.078-3.078,3.09,3.09,0,0,0-3.078-3.078,3.078,3.078,0,1,0,0,6.156Z" transform="translate(0 -8.947)"/>
</svg>
