<svg xmlns="http://www.w3.org/2000/svg" xmlns:xlink="http://www.w3.org/1999/xlink" width="48" height="48" viewBox="0 0 48 48">
  <defs>
    <filter id="Rectangle_234" x="0" y="0" width="48" height="48" filterUnits="userSpaceOnUse">
      <feOffset dy="3" input="SourceAlpha"/>
      <feGaussianBlur stdDeviation="3" result="blur"/>
      <feFlood flood-opacity="0.161"/>
      <feComposite operator="in" in2="blur"/>
      <feComposite in="SourceGraphic"/>
    </filter>
  </defs>
  <g id="image_icon" data-name="image icon" transform="translate(-74 -560)">
    <g transform="matrix(1, 0, 0, 1, 74, 560)" filter="url(#Rectangle_234)">
      <rect id="Rectangle_234-2" data-name="Rectangle 234" width="30" height="30" rx="4" transform="translate(9 6)" fill="#fff"/>
    </g>
    <g id="Layer_2" data-name="Layer 2" transform="translate(90 574)">
      <path id="Path_127" data-name="Path 127" d="M17.4,18.65H4.878A1.87,1.87,0,0,1,3,16.789V6.861A1.87,1.87,0,0,1,4.878,5H17.4a1.87,1.87,0,0,1,1.878,1.861v9.927A1.87,1.87,0,0,1,17.4,18.65ZM4.878,6.241a.623.623,0,0,0-.626.62v9.927a.623.623,0,0,0,.626.62H17.4a.623.623,0,0,0,.626-.62V6.861a.623.623,0,0,0-.626-.62Z" transform="translate(-3 -5)" fill="#464646"/>
      <path id="Path_128" data-name="Path 128" d="M19.878,12.723a1.861,1.861,0,1,1,1.878-1.861A1.87,1.87,0,0,1,19.878,12.723Zm0-2.482a.62.62,0,1,0,.626.62A.623.623,0,0,0,19.878,10.241Z" transform="translate(-8.612 -6.518)" fill="#464646"/>
      <path id="Path_129" data-name="Path 129" d="M22.652,23.432a.627.627,0,0,1-.519-.279l-2.716-4.033a.629.629,0,0,0-1.039,0l-.213.31a.63.63,0,0,1-.833.128.617.617,0,0,1-.206-.811l.207-.316a1.887,1.887,0,0,1,3.129,0l2.71,4.039a.617.617,0,0,1-.175.856A.592.592,0,0,1,22.652,23.432Z" transform="translate(-8.257 -9.782)" fill="#464646"/>
      <path id="Path_130" data-name="Path 130" d="M5.627,22.244a.63.63,0,0,1-.338-.1.617.617,0,0,1-.188-.856L9,15.32a1.882,1.882,0,0,1,1.565-.85h0a1.882,1.882,0,0,1,1.565.831l4.018,5.981a.617.617,0,0,1-.206.811.63.63,0,0,1-.833-.128L11.084,15.99a.627.627,0,0,0-.519-.279h0a.627.627,0,0,0-.519.285L6.152,21.959A.627.627,0,0,1,5.627,22.244Z" transform="translate(-3.749 -8.594)" fill="#464646"/>
    </g>
  </g>
</svg>
