<svg xmlns="http://www.w3.org/2000/svg" width="24.254" height="24.275" viewBox="0 0 24.254 24.275">
  <g id="my_library" data-name="my library" transform="translate(-8611 1405)">
    <g id="my_library-2" data-name="my library" transform="translate(8611 -1405)">
      <path id="Path_34" data-name="Path 34" d="M28.236,11.837a1.578,1.578,0,0,1-.757,1.363l-10.6,6.268a1.471,1.471,0,0,1-1.515,0L4.761,13.2a1.594,1.594,0,0,1,0-2.726l10.6-6.268a1.471,1.471,0,0,1,1.515,0l10.6,6.268A1.578,1.578,0,0,1,28.236,11.837Z" transform="translate(-3.993 -3.996)" fill="#3c3cec"/>
      <path id="Path_35" data-name="Path 35" d="M27.479,14.7l-2.59-1.567-6.513,3.855a4.349,4.349,0,0,1-4.5.031L7.351,13.161l-2.59,1.567a1.594,1.594,0,0,0,0,2.726l10.6,6.268a1.471,1.471,0,0,0,1.515,0l10.6-6.268a1.594,1.594,0,0,0,0-2.726Z" transform="translate(-3.993 0.343)" fill="#3c3cec"/>
    </g>
  </g>
</svg>
