<svg id="upload" xmlns="http://www.w3.org/2000/svg" width="15.621" height="15.02" viewBox="0 0 15.621 15.02">
  <g id="Group_83" data-name="Group 83">
    <path id="Path_217" data-name="Path 217" d="M15.358,320.036a.868.868,0,0,0-.638-.263H10.711a1.853,1.853,0,0,1-.662.864,1.722,1.722,0,0,1-1.037.338h-2.4a1.722,1.722,0,0,1-1.037-.338,1.853,1.853,0,0,1-.662-.864H.9a.869.869,0,0,0-.638.263.868.868,0,0,0-.263.638v3a.868.868,0,0,0,.263.638.869.869,0,0,0,.638.263H14.72a.9.9,0,0,0,.9-.9v-3A.868.868,0,0,0,15.358,320.036Zm-3.52,3.164a.59.59,0,1,1,.178-.422A.578.578,0,0,1,11.838,323.2Zm2.4,0a.589.589,0,1,1,.178-.422A.577.577,0,0,1,14.241,323.2Z" transform="translate(0 -309.559)" fill="#fff"/>
    <path id="Path_218" data-name="Path 218" d="M91.679,14.543h2.4v4.206a.609.609,0,0,0,.6.6h2.4a.609.609,0,0,0,.6-.6V14.543h2.4a.561.561,0,0,0,.554-.376.534.534,0,0,0-.131-.648L96.307,9.314a.589.589,0,0,0-.845,0L91.257,13.52a.534.534,0,0,0-.131.648A.561.561,0,0,0,91.679,14.543Z" transform="translate(-88.075 -9.136)" fill="#fff"/>
  </g>
</svg>
