<?xml version="1.0"?>
<svg xmlns="http://www.w3.org/2000/svg" xmlns:xlink="http://www.w3.org/1999/xlink" xmlns:svgjs="http://svgjs.com/svgjs" version="1.1" width="512" height="512" x="0" y="0" viewBox="0 0 512 512" style="enable-background:new 0 0 512 512" xml:space="preserve" class=""><circle r="256" cx="256" cy="256" fill="#6a86fe" shape="circle"/><g transform="matrix(0.6,0,0,0.6,102.4,102.4)"><path xmlns="http://www.w3.org/2000/svg" d="m62 56v366h270v60c0 16.566406 13.429688 30 30 30s30-13.433594 30-30v-451c0-10.976562 3.175781-22.140625 8.34375-31h-284.34375c-29.824219 0-54 26.175781-54 56zm165-9c57.890625 0 105 47.109375 105 105 0 24.8125-20.1875 45-45 45-11.566406 0-22.019531-4.507812-30-11.703125-7.980469 7.195313-18.433594 11.703125-30 11.703125-24.8125 0-45-20.1875-45-45s20.1875-45 45-45 45 20.1875 45 45c0 8.277344 6.722656 15 15 15s15-6.722656 15-15c0-41.351562-33.648438-75-75-75s-75 33.648438-75 75 33.648438 75 75 75c11.792969 0 23.085938-2.652344 33.546875-7.894531l13.417969 26.835937c-14.664063 7.335938-30.472656 11.058594-46.964844 11.058594-57.890625 0-105-47.109375-105-105s47.109375-105 105-105zm-105 240h210v30h-210zm0 60h210v30h-210zm0 0" fill="#ffffff" data-original="#000000" style="" class=""/><path xmlns="http://www.w3.org/2000/svg" d="m227 137c-8.277344 0-15 6.722656-15 15s6.722656 15 15 15 15-6.722656 15-15-6.722656-15-15-15zm0 0" fill="#ffffff" data-original="#000000" style="" class=""/><path xmlns="http://www.w3.org/2000/svg" d="m482 31c0-16.5-13.5-31-30-31s-30 14.5-30 31v31h60zm0 0" fill="#ffffff" data-original="#000000" style="" class=""/><path xmlns="http://www.w3.org/2000/svg" d="m46 512h264.34375c-5.167969-8.859375-8.34375-19.023438-8.34375-30v-30h-302v15c0 24.851562 21.148438 45 46 45zm0 0" fill="#ffffff" data-original="#000000" style="" class=""/><path xmlns="http://www.w3.org/2000/svg" d="m482 152h-30v30h-30v60h90v-60h-30zm0 0" fill="#ffffff" data-original="#000000" style="" class=""/><path xmlns="http://www.w3.org/2000/svg" d="m422 410.546875 45 90 45-90v-138.546875h-90zm0 0" fill="#ffffff" data-original="#000000" style="" class=""/></g></svg>
