<svg xmlns="http://www.w3.org/2000/svg" width="31" height="31" viewBox="0 0 31 31">
  <g id="copy_to_my_funnel_" data-name="copy to my funnel " transform="translate(0 -0.244)">
    <circle id="Ellipse_18" data-name="Ellipse 18" cx="15.5" cy="15.5" r="15.5" transform="translate(0 0.244)" fill="#6fc7e8"/>
    <g id="edit" transform="translate(5.903 6.26)">
      <path id="Path_222" data-name="Path 222" d="M10.559,1.59H9.685a2.191,2.191,0,0,0-4.214,0H4.6a.6.6,0,0,0-.6.6V3.379A1.4,1.4,0,0,0,5.391,4.77H9.764a1.4,1.4,0,0,0,1.391-1.391V2.186A.6.6,0,0,0,10.559,1.59Z" transform="translate(-0.989)" fill="#fff"/>
      <path id="Path_223" data-name="Path 223" d="M11.33,3h-.2v.95A2.138,2.138,0,0,1,8.945,6.039H4.572A2.138,2.138,0,0,1,2.385,3.95V3h-.2A2.138,2.138,0,0,0,0,5.089v9.5a2.138,2.138,0,0,0,2.186,2.089H8.054l.175-.934a2.085,2.085,0,0,1,.6-1.117l.636-.608H2.982a.57.57,0,1,1,0-1.14h7.553a.282.282,0,0,1,.111.015h.008l2.862-2.735V5.089A2.138,2.138,0,0,0,11.33,3Zm-.8,8.547H2.982a.57.57,0,1,1,0-1.14h7.553a.57.57,0,1,1,0,1.14Zm0-2.469H2.982a.57.57,0,1,1,0-1.14h7.553a.57.57,0,1,1,0,1.14Z" transform="translate(0 -0.615)" fill="#fff"/>
      <path id="Path_224" data-name="Path 224" d="M12.373,21.474a.6.6,0,0,1-.587-.7l.421-2.389a.6.6,0,0,1,.165-.318l5.9-5.9a1.213,1.213,0,0,1,1.827-.141l.984.984a1.392,1.392,0,0,1,0,1.968l-5.9,5.9a.587.587,0,0,1-.318.165l-2.389.421a.568.568,0,0,1-.1.01Zm2.389-1.018h0Z" transform="translate(-3.05 -3.029)" fill="#fff"/>
    </g>
  </g>
</svg>
