<svg xmlns="http://www.w3.org/2000/svg" width="31" height="30" viewBox="0 0 31 30">
  <g id="delete" transform="translate(0 -0.209)">
    <ellipse id="Ellipse_21" data-name="Ellipse 21" cx="15.5" cy="15" rx="15.5" ry="15" transform="translate(0 0.209)" fill="#fc7f2b"/>
    <path id="iconfinder_No_984759" d="M34.946,30.723l4.974-4.828a1.9,1.9,0,0,0,0-2.739L38.8,22.069a2.038,2.038,0,0,0-2.822,0L31,26.893l-4.973-4.828a2.038,2.038,0,0,0-2.822,0l-1.119,1.086a1.9,1.9,0,0,0,0,2.739l4.974,4.828L22.083,35.55a1.9,1.9,0,0,0,0,2.739l1.119,1.086a2.037,2.037,0,0,0,2.822,0L31,34.552l4.973,4.828a2.037,2.037,0,0,0,2.822,0l1.119-1.086a1.9,1.9,0,0,0,0-2.739Z" transform="translate(-15.843 -15.852)" fill="#fff"/>
  </g>
</svg>
