<svg id="preview_ebook_" data-name="preview ebook " xmlns="http://www.w3.org/2000/svg" width="31" height="31" viewBox="0 0 31 31">
  <circle id="Ellipse_20" data-name="Ellipse 20" cx="15.5" cy="15.5" r="15.5" fill="#564bf5"/>
  <g id="icons" transform="translate(5.903 5.903)">
    <path id="search" d="M18.942,16.595,14.918,12.57a7.309,7.309,0,0,0,1.174-4.024,7.546,7.546,0,1,0-7.546,7.546,7.309,7.309,0,0,0,4.024-1.174l4.024,4.024a1.655,1.655,0,0,0,1.174.5,1.682,1.682,0,0,0,1.677-1.677A1.407,1.407,0,0,0,18.942,16.595ZM4.354,8.546a4.192,4.192,0,1,1,4.192,4.192A4.151,4.151,0,0,1,4.354,8.546Z" transform="translate(-1 -1)" fill="#fff"/>
  </g>
</svg>
