<svg xmlns="http://www.w3.org/2000/svg" width="22" height="21.043" viewBox="0 0 22 21.043">
  <g id="cancel_page" data-name="cancel page" transform="translate(-1622 -188)">
    <path id="Path_487" data-name="Path 487" d="M0,0H22V21.043H0Z" transform="translate(1622 188)" fill="#ff4646"/>
    <path id="XMLID_732_" d="M34.575,32.731a1.287,1.287,0,0,1,0,1.844,1.322,1.322,0,0,1-1.844,0L27.457,29.3l-5.274,5.274a1.322,1.322,0,0,1-1.844,0,1.287,1.287,0,0,1,0-1.844l5.274-5.274-5.274-5.274a1.3,1.3,0,1,1,1.844-1.844l5.274,5.274,5.274-5.274a1.3,1.3,0,1,1,1.844,1.844L29.3,27.457Z" transform="translate(1606.05 171.05)" fill="#fff"/>
  </g>
</svg>
