<svg id="information_1_" data-name="information (1)" xmlns="http://www.w3.org/2000/svg" width="20" height="20" viewBox="0 0 20 20">
  <g id="help">
    <path id="Path_107" data-name="Path 107" d="M10,0A10,10,0,1,0,20,10,10.011,10.011,0,0,0,10,0ZM9.583,16.667a1.25,1.25,0,1,1,1.25-1.25A1.251,1.251,0,0,1,9.583,16.667Zm1.25-5.083v1.333a.416.416,0,0,1-.417.417H8.75a.416.416,0,0,1-.417-.417V10.833A1.669,1.669,0,0,1,10,9.167,1.667,1.667,0,1,0,8.333,7.5v.417a.416.416,0,0,1-.417.417H6.25a.416.416,0,0,1-.417-.417V7.5a4.167,4.167,0,1,1,5,4.084Z" fill="#3c3cec"/>
  </g>
</svg>
